<mxfile host="app.diagrams.net" modified="2022-02-18T06:28:29.355Z" agent="5.0 (X11; Linux x86_64) AppleWebKit/537.36 (KHTML, like Gecko) Chrome/92.0.4515.159 Safari/537.36" etag="oH2wTSsBxs7TVc6OnV4s" version="15.7.3" type="github">
  <diagram id="zzI_Z5pTFsBz9q3pRISx" name="Page-1">
    <mxGraphModel dx="1100" dy="491" grid="1" gridSize="10" guides="1" tooltips="1" connect="1" arrows="1" fold="1" page="1" pageScale="1" pageWidth="827" pageHeight="1169" math="0" shadow="0">
      <root>
        <mxCell id="0" />
        <mxCell id="1" parent="0" />
        <mxCell id="pxrGVdchjFevSrUYM--5-3" style="edgeStyle=orthogonalEdgeStyle;rounded=0;orthogonalLoop=1;jettySize=auto;html=1;entryX=0.5;entryY=0;entryDx=0;entryDy=0;" edge="1" parent="1" source="pxrGVdchjFevSrUYM--5-1" target="pxrGVdchjFevSrUYM--5-2">
          <mxGeometry relative="1" as="geometry" />
        </mxCell>
        <mxCell id="pxrGVdchjFevSrUYM--5-1" value="Cov" style="rounded=1;whiteSpace=wrap;html=1;" vertex="1" parent="1">
          <mxGeometry x="300" y="130" width="120" height="30" as="geometry" />
        </mxCell>
        <mxCell id="pxrGVdchjFevSrUYM--5-2" value="Diag" style="rounded=1;whiteSpace=wrap;html=1;" vertex="1" parent="1">
          <mxGeometry x="300" y="193" width="120" height="37" as="geometry" />
        </mxCell>
        <mxCell id="pxrGVdchjFevSrUYM--5-6" style="edgeStyle=orthogonalEdgeStyle;rounded=0;orthogonalLoop=1;jettySize=auto;html=1;" edge="1" parent="1" source="pxrGVdchjFevSrUYM--5-4" target="pxrGVdchjFevSrUYM--5-5">
          <mxGeometry relative="1" as="geometry" />
        </mxCell>
        <mxCell id="pxrGVdchjFevSrUYM--5-4" value="ADL" style="rounded=1;whiteSpace=wrap;html=1;" vertex="1" parent="1">
          <mxGeometry x="480" y="130" width="110" height="30" as="geometry" />
        </mxCell>
        <mxCell id="pxrGVdchjFevSrUYM--5-7" style="edgeStyle=orthogonalEdgeStyle;rounded=0;orthogonalLoop=1;jettySize=auto;html=1;entryX=1;entryY=0.5;entryDx=0;entryDy=0;" edge="1" parent="1" source="pxrGVdchjFevSrUYM--5-5" target="pxrGVdchjFevSrUYM--5-2">
          <mxGeometry relative="1" as="geometry" />
        </mxCell>
        <mxCell id="pxrGVdchjFevSrUYM--5-5" value="Test Data" style="rounded=1;whiteSpace=wrap;html=1;" vertex="1" parent="1">
          <mxGeometry x="480" y="193" width="110" height="37" as="geometry" />
        </mxCell>
        <mxCell id="pxrGVdchjFevSrUYM--5-9" style="edgeStyle=orthogonalEdgeStyle;rounded=0;orthogonalLoop=1;jettySize=auto;html=1;exitX=1;exitY=0.5;exitDx=0;exitDy=0;entryX=0;entryY=0.5;entryDx=0;entryDy=0;" edge="1" parent="1" source="pxrGVdchjFevSrUYM--5-8" target="pxrGVdchjFevSrUYM--5-2">
          <mxGeometry relative="1" as="geometry" />
        </mxCell>
        <mxCell id="pxrGVdchjFevSrUYM--5-8" value="Data Set" style="rounded=1;whiteSpace=wrap;html=1;" vertex="1" parent="1">
          <mxGeometry x="120" y="193" width="120" height="37" as="geometry" />
        </mxCell>
        <mxCell id="pxrGVdchjFevSrUYM--5-11" style="edgeStyle=orthogonalEdgeStyle;rounded=0;orthogonalLoop=1;jettySize=auto;html=1;entryX=0.5;entryY=0;entryDx=0;entryDy=0;" edge="1" parent="1" source="pxrGVdchjFevSrUYM--5-10" target="pxrGVdchjFevSrUYM--5-8">
          <mxGeometry relative="1" as="geometry" />
        </mxCell>
        <mxCell id="pxrGVdchjFevSrUYM--5-10" value="" style="rounded=1;whiteSpace=wrap;html=1;fillColor=#dae8fc;strokeColor=#6c8ebf;" vertex="1" parent="1">
          <mxGeometry x="120" y="130" width="120" height="30" as="geometry" />
        </mxCell>
      </root>
    </mxGraphModel>
  </diagram>
</mxfile>
